<svg id="Layer_1" data-name="Layer 1" xmlns="http://www.w3.org/2000/svg" viewBox="0 0 34.5 42"><defs><style>.cls-1{fill:#fff;}</style></defs><path class="cls-1" d="M33.27,3.9l8.17,8.16a.76.76,0,0,1-.54,1.29H32.73A.75.75,0,0,1,32,12.6V4.43A.75.75,0,0,1,33.27,3.9Z" transform="translate(-7.16 -3.67)"/><path class="cls-1" d="M40.31,16.27h-11a.71.71,0,0,1-.71-.71V4.61a.7.7,0,0,0-.7-.71H10a2.8,2.8,0,0,0-2.8,2.8V42.87a2.8,2.8,0,0,0,2.8,2.8H38.21a2.8,2.8,0,0,0,2.8-2.8V17A.7.7,0,0,0,40.31,16.27ZM21.07,40.06H15.86V34.85h5.21Zm0-6H15.87V28.87h5.21Zm0-6H15.88V22.89h5.21Zm0-6H15.88V16.91h5.21Zm6,12H21.85V28.87h5.21Zm0-6H21.86V22.89h5.21Zm6,6H27.84V28.87h5.21Z" transform="translate(-7.16 -3.67)"/></svg>