<svg id="Layer_1" data-name="Layer 1" xmlns="http://www.w3.org/2000/svg" viewBox="0 0 34.5 42"><defs><style>.cls-1{fill:#fff;}</style></defs><path class="cls-1" d="M40.9,16.11h-11a.7.7,0,0,1-.7-.71V4.45a.71.71,0,0,0-.71-.71h-18a2.8,2.8,0,0,0-2.8,2.8V42.7a2.8,2.8,0,0,0,2.8,2.81H38.8a2.81,2.81,0,0,0,2.81-2.81V16.82A.71.71,0,0,0,40.9,16.11Z" transform="translate(-7.75 -3.51)"/><path class="cls-1" d="M33.86,3.73,42,11.9a.76.76,0,0,1-.53,1.29H33.33a.76.76,0,0,1-.76-.75V4.27A.76.76,0,0,1,33.86,3.73Z" transform="translate(-7.75 -3.51)"/></svg>