<svg id="Layer_1" data-name="Layer 1" xmlns="http://www.w3.org/2000/svg" viewBox="0 0 34.53 42"><defs><style>.cls-1{fill:#fff;}</style></defs><path class="cls-1" d="M26.16.22,34.3,8.39a.77.77,0,0,1-.53,1.29H25.63a.76.76,0,0,1-.76-.75V.76A.76.76,0,0,1,25.63,0,.75.75,0,0,1,26.16.22Z" transform="translate(0.01 0)"/><path class="cls-1" d="M17.93,18a1.56,1.56,0,0,0-2.22,0L9.34,24.41a1.56,1.56,0,0,0,0,2.21L15.71,33a1.58,1.58,0,0,0,2.22,0l6.37-6.37a1.56,1.56,0,0,0,0-2.21Zm4.7,8.42-5,5a1.13,1.13,0,0,1-1.6,0l-5-5a1.13,1.13,0,0,1,0-1.6l5-5a1.13,1.13,0,0,1,1.6,0l5,5A1.13,1.13,0,0,1,22.63,26.46Z" transform="translate(0.01 0)"/><path class="cls-1" d="M33.2,12.6h-11a.7.7,0,0,1-.7-.7h0V.94a.71.71,0,0,0-.71-.71h-18A2.8,2.8,0,0,0,0,3V39.19A2.8,2.8,0,0,0,2.78,42H31.1a2.81,2.81,0,0,0,2.81-2.81V13.31A.71.71,0,0,0,33.2,12.6ZM27,24.16A2,2,0,0,1,27,27l-1,1,1.53,1.53a.78.78,0,0,1-1.1,1.11L24.88,29l-.9.89,1.53,1.53a.78.78,0,0,1-1.1,1.11L22.88,31l-.9.9,1.53,1.53a.78.78,0,1,1-1.1,1.1L20.88,33l-.9.9,1.53,1.53a.78.78,0,1,1-1.1,1.1L18.88,35l-.66.66a2,2,0,0,1-2.8,0l-1-1-1.8,1.79a.78.78,0,1,1-1.1-1.1l1.79-1.8-.89-.89-1.8,1.79a.78.78,0,1,1-1.1-1.1l1.79-1.8-.89-.89L8.64,32.5a.78.78,0,1,1-1.1-1.1l1.79-1.8-.89-.89L6.64,30.5a.78.78,0,0,1-1.1-1.1l1.79-1.8L6.69,27a2,2,0,0,1,0-2.8l.59-.59-2-2a.8.8,0,0,1,0-1.11.78.78,0,0,1,1.1,0l2,2,.89-.9-2-2a.78.78,0,0,1,1.1-1.11l2,2,.89-.9-2-2a.78.78,0,0,1,1.1-1.1l2,2,.89-.9-2-2a.78.78,0,0,1,1.1-1.1l2,2,1-1a2,2,0,0,1,2.8,0l.57.58,1.7-1.7a.78.78,0,1,1,1.11,1.11l-1.7,1.69.89.9,1.7-1.7a.78.78,0,1,1,1.11,1.1l-1.7,1.7.89.9,1.7-1.7a.78.78,0,1,1,1.11,1.1l-1.7,1.7.89.9,1.7-1.7a.78.78,0,1,1,1.11,1.1l-1.7,1.7Z" transform="translate(0.01 0)"/><rect class="cls-1" x="13.71" y="22.55" width="6.22" height="6.22" rx="0.8" transform="translate(-13.2 19.41) rotate(-45)"/></svg>