<?xml version="1.0" encoding="utf-8"?>
<!-- Generator: Adobe Illustrator 25.4.1, SVG Export Plug-In . SVG Version: 6.00 Build 0)  -->
<svg version="1.1" id="Layer_1" xmlns="http://www.w3.org/2000/svg" xmlns:xlink="http://www.w3.org/1999/xlink" x="0px" y="0px"
	 viewBox="0 0 34.5 42" style="enable-background:new 0 0 34.5 42;" xml:space="preserve">
<style type="text/css">
	.st0{fill:#FFFFFF;}
</style>
<path class="st0" d="M26.1,0.2l8.1,8.2c0.3,0.3,0.3,0.8,0,1.1c-0.1,0.1-0.3,0.2-0.5,0.2h-8.1c-0.4,0-0.8-0.3-0.8-0.8V0.8
	c0-0.4,0.3-0.8,0.8-0.8C25.8,0,26,0.1,26.1,0.2z"/>
<path class="st0" d="M33.2,13.4h-11c-0.4,0-0.7-0.3-0.7-0.7c0,0,0,0,0,0v-11c0-0.4-0.3-0.7-0.7-0.7c0,0,0,0,0,0h-18
	C1.2,1,0,2.3,0,3.8V40c0,1.5,1.2,2.8,2.8,2.8c0,0,0,0,0,0H31c1.6,0,2.8-1.3,2.8-2.8v0V14.1C33.9,13.7,33.5,13.4,33.2,13.4z
	 M27.3,35.1h-21c-0.6,0-1.1-0.6-1.1-1.4c0-0.8,0.5-1.4,1.1-1.4c0,0,0,0,0,0h21c0.6,0,1.1,0.6,1.1,1.4C28.5,34.5,28,35.1,27.3,35.1z
	 M27.3,27.9h-21c-0.6-0.1-1.1-0.7-1-1.5c0.1-0.7,0.5-1.2,1-1.2h21c0.6,0.1,1.1,0.7,1,1.5C28.3,27.3,27.9,27.8,27.3,27.9z M27.5,20.7
	h-21c-0.6-0.1-1.1-0.7-1-1.5c0.1-0.7,0.5-1.2,1-1.2h21c0.6,0.1,1.1,0.7,1,1.5C28.4,20.1,28,20.6,27.5,20.7z"/>
</svg>
