<svg id="Layer_1" data-name="Layer 1" xmlns="http://www.w3.org/2000/svg" viewBox="0 0 34.5 42"><defs><style>.cls-1{fill:#fff;}</style></defs><path class="cls-1" d="M33.86,4.22,42,12.39a.76.76,0,0,1-.53,1.29H33.33a.76.76,0,0,1-.76-.75V4.76A.76.76,0,0,1,33.86,4.22Z" transform="translate(-7.75 -4)"/><path class="cls-1" d="M40.9,16.6h-11a.7.7,0,0,1-.7-.71v-11a.7.7,0,0,0-.71-.7h-18A2.8,2.8,0,0,0,7.75,7V43.19A2.8,2.8,0,0,0,10.55,46H38.8a2.81,2.81,0,0,0,2.81-2.81V17.31A.71.71,0,0,0,40.9,16.6ZM35.1,38.29h-21a1.14,1.14,0,1,1,0-2.28h21a1.14,1.14,0,0,1,0,2.28Zm0-6h-21a1.15,1.15,0,0,1,0-2.29h21a1.15,1.15,0,0,1,0,2.29Zm.11-6h-21a1.15,1.15,0,0,1,0-2.29h21a1.15,1.15,0,0,1,0,2.29Z" transform="translate(-7.75 -4)"/></svg>