<svg id="Layer_1" data-name="Layer 1" xmlns="http://www.w3.org/2000/svg" viewBox="0 0 34.5 42"><defs><style>.cls-1{fill:#fff;}</style></defs><path class="cls-1" d="M33.86,4.22,42,12.39a.76.76,0,0,1-.53,1.29H33.33a.76.76,0,0,1-.76-.75V4.76A.76.76,0,0,1,33.86,4.22Z" transform="translate(-7.75 -4)"/><path class="cls-1" d="M40.9,16.6h-11a.7.7,0,0,1-.7-.71v-11a.7.7,0,0,0-.71-.7h-18A2.8,2.8,0,0,0,7.75,7V43.19A2.8,2.8,0,0,0,10.55,46H38.8a2.81,2.81,0,0,0,2.81-2.81V17.31A.71.71,0,0,0,40.9,16.6ZM17.76,40,15.5,19.68a.21.21,0,0,1,.41-.11L20.77,31a.26.26,0,0,1,0,.15L18.18,40A.21.21,0,0,1,17.76,40ZM35.88,24.71,19.38,40.35a.22.22,0,0,1-.36-.22l2.55-8.49a.24.24,0,0,1,.11-.13l14-7.15A.21.21,0,0,1,35.88,24.71Zm.51-1.7L21.83,30.35a.26.26,0,0,1-.36-.12l-5.2-12.29a.26.26,0,0,1,.3-.35l19.78,5A.21.21,0,0,1,36.39,23Z" transform="translate(-7.75 -4)"/></svg>