<?xml version="1.0" encoding="utf-8"?>
<!-- Generator: Adobe Illustrator 25.4.1, SVG Export Plug-In . SVG Version: 6.00 Build 0)  -->
<svg version="1.1" id="Layer_1" xmlns="http://www.w3.org/2000/svg" xmlns:xlink="http://www.w3.org/1999/xlink" x="0px" y="0px"
	 viewBox="0 0 44.9 44" style="enable-background:new 0 0 44.9 44;" xml:space="preserve">
<style type="text/css">
	.st0{fill:#FFFFFF;}
</style>
<path class="st0" d="M32.8,0H5.5C2.5,0,0,2.3,0,5.3c0,0,0,0,0,0v33.3c0,3,2.5,5.4,5.5,5.3c0,0,0,0,0,0h33.9c3,0,5.4-2.4,5.5-5.3
	V11.8c0-0.6-0.2-1.1-0.7-1.6l-9.9-9.6C33.9,0.2,33.3,0,32.8,0z M10.3,3.1h19.3c1.2,0,2.2,0.9,2.2,2.2c0,0,0,0,0,0v10.2
	c0,1.2-1,2.2-2.2,2.2c0,0,0,0,0,0H10.3c-1.2,0-2.2-1-2.2-2.2V5.3C8,4,9,3.1,10.3,3.1C10.3,3.1,10.3,3.1,10.3,3.1z M32.9,41.2h-23
	c-2.2,0-4.1-1.8-4.1-4V26.6c0-1.9,1.6-3.5,3.5-3.5c0,0,0,0,0,0h24.1c1.9,0,3.5,1.5,3.6,3.5c0,0,0,0,0,0v10.6
	C37,39.4,35.2,41.2,32.9,41.2C32.9,41.2,32.9,41.2,32.9,41.2z"/>
<path class="st0" d="M21.3,1.8h4.8c0.5,0,0.9,0.4,0.9,0.8v10.2c0,0.5-0.4,0.8-0.9,0.8h-4.8c-0.5,0-0.9-0.4-0.9-0.8V2.7
	C20.4,2.2,20.8,1.8,21.3,1.8z"/>
<path class="st0" d="M11,27.8h20.9c0.5,0,0.8,0.4,0.8,0.9v1c0,0.5-0.4,0.9-0.8,0.9H11c-0.5,0-0.9-0.4-0.9-0.9v-1
	C10.2,28.2,10.5,27.8,11,27.8z"/>
<path class="st0" d="M11,33.6h20.9c0.5,0,0.8,0.4,0.8,0.9v1c0,0.5-0.4,0.8-0.8,0.8H11c-0.5,0-0.9-0.4-0.9-0.8v-1
	C10.2,34,10.5,33.6,11,33.6z"/>
</svg>
