<svg id="Layer_1" data-name="Layer 1" xmlns="http://www.w3.org/2000/svg" viewBox="0 0 44.87 43.95"><defs><style>.cls-1{fill:#fff;}</style></defs><path class="cls-1" d="M36.26,2.2H9a5.42,5.42,0,0,0-5.5,5.34V40.81A5.42,5.42,0,0,0,9,46.15H42.9a5.42,5.42,0,0,0,5.49-5.34V14a2.17,2.17,0,0,0-.66-1.55l-9.88-9.6A2.27,2.27,0,0,0,36.26,2.2ZM13.79,5.29H33.1a2.2,2.2,0,0,1,2.24,2.18v10.2a2.21,2.21,0,0,1-2.24,2.18H13.79a2.22,2.22,0,0,1-2.25-2.18V7.47A2.21,2.21,0,0,1,13.79,5.29ZM36.42,43.41h-23a4.07,4.07,0,0,1-4.12-4V28.8a3.51,3.51,0,0,1,3.56-3.47H37a3.52,3.52,0,0,1,3.57,3.47V39.4A4.07,4.07,0,0,1,36.42,43.41Z" transform="translate(-3.52 -2.2)"/><rect class="cls-1" x="22.43" y="3.9" width="6.47" height="12.12" rx="0.85"/><rect class="cls-1" x="10.14" y="25.83" width="22.56" height="2.69" rx="0.85"/><rect class="cls-1" x="10.14" y="30.57" width="22.56" height="2.69" rx="0.85"/></svg>