<svg id="Layer_1" data-name="Layer 1" xmlns="http://www.w3.org/2000/svg" viewBox="0 0 44.4 27.52"><defs><style>.cls-1{fill:#fff;}</style></defs><path class="cls-1" d="M36.4,38.76H7c-2.23,0-3.66-2.13-2.61-3.89l9-15.18A3,3,0,0,1,16,18.29H45.43c2.23,0,3.66,2.12,2.61,3.89L39,37.36A3,3,0,0,1,36.4,38.76Z" transform="translate(-3.99 -11.24)"/><path class="cls-1" d="M15.09,16.56H38.48a2.61,2.61,0,0,0-2.15-1.15H19.87L16,11.67a1.39,1.39,0,0,0-1-.43H5.35A1.36,1.36,0,0,0,4,12.6V31.86l8.16-13.72A3.39,3.39,0,0,1,15.09,16.56Z" transform="translate(-3.99 -11.24)"/></svg>