<svg id="Layer_1" data-name="Layer 1" xmlns="http://www.w3.org/2000/svg" viewBox="0 0 46.99 28.49"><defs><style>.cls-1{fill:#fff;}</style></defs><path class="cls-1" d="M35.3,22.16a4.33,4.33,0,0,0-2.69-2.32l-6-1.82h0c-.5-.12-1.18-.09-.89-.56A16.16,16.16,0,0,1,27,16a1.9,1.9,0,0,0,.59-1.59c-.15-1-.47-1.34-2.06-1.44-1.14-.07-.38,0-1,0a6.49,6.49,0,0,0-1,0c-1.59,0-1.83.5-2,1.46A1.9,1.9,0,0,0,22.15,16a16.16,16.16,0,0,1,1.32,1.42c.29.47-.59.44-1.1.56H22.3l-6,1.81a4.37,4.37,0,0,0-2.71,2.37v0l-.87,14.71a1.65,1.65,0,0,1-1.14.11,11.64,11.64,0,0,0,9.5,4.4h6.7s6.13.14,9.52-3.81l1.22-7.4A43.65,43.65,0,0,0,35.3,22.16Z" transform="translate(-2.29 -12.96)"/><path class="cls-1" d="M10.4,34.42a11,11,0,0,1-2-1.4c-3.59-3.12-3.95-5.16-4-5.52C4.28,26,5,25.15,6.87,24.34a11.77,11.77,0,0,1,6-.58c.24-.54.48-1.06.7-1.54l0-.3a14.09,14.09,0,0,0-8.1.86c-2.32,1.08-3.4,2.51-3.18,4.44.05.48.51,3.18,5.06,7.31,2,1.8,3.33,2.38,4.19,2.51h0A5.86,5.86,0,0,1,10.4,34.42Z" transform="translate(-2.29 -12.96)"/><path class="cls-1" d="M47.22,21.13s-2.17-.6-3.19,2.13c-1.09,2.9-.54,2-1.61,4.55s-2.13,2.27-3.91,2.42h0c.6,2.52.6,5-.81,6.91-.13.17-.27.33-.41.49v0c.8,0,1.2.23,3.6-.88a7,7,0,0,0,3.69-4.37,51.26,51.26,0,0,1,1.64-7.68c1.16-3.5,2-3.33,2.86-3.41S48,21.09,47.22,21.13Z" transform="translate(-2.29 -12.96)"/><path class="cls-1" d="M10.4,34.42c1.59.86,2.25.41,2.25.41l.71-11-.48-.08C11.4,27,9.76,31.11,10.4,34.42Z" transform="translate(-2.29 -12.96)"/><path class="cls-1" d="M27.77,41.44s6.65.16,9.93-4.3c2.88-3.92-.1-10.12-2.12-14.4a5.86,5.86,0,0,0-3.6-3.1L26.59,18h0c-.51-.12-1.19-.09-.9-.56S26.42,16.71,27,16a1.9,1.9,0,0,0,.6-1.59c-.16-1-.47-1.34-2.07-1.44-1.13-.07-.38,0-1,0a6.57,6.57,0,0,0-1,0c-1.59,0-1.83.5-2,1.46a1.9,1.9,0,0,0,.6,1.59,17.44,17.44,0,0,1,1.31,1.42c.3.47-.59.44-1.09.56h-.07L17,19.64a5.83,5.83,0,0,0-3.63,3.15c-2,4.28-4.74,10.45-1.76,14.24a11.67,11.67,0,0,0,9.52,4.41h6.69" transform="translate(-2.29 -12.96)"/></svg>